# xmcd
#
# Track frame offsets: 
#        150
#        14205
#        27722
#        41007
#        54570
#        67262
#        78395
#        89225
#        100735
#        113147
#        126167
#        137317
#        149082
#        159922
#        171285
#
# Disc length: 2458 seconds
#
# Revision: 0
# Processed by: cddbd v1.4PL0 Copyright (c) Steve Scherf et al.
# Submitted via: ExactAudioCopy v0.90b4
#
DISCID=df09980f
DTITLE=Joni James - Little Girl Blue [Taragon]
DYEAR=1995
DGENRE=Vocal
TTITLE0=Little Girl Blue
TTITLE1=I'm Through with Love
TTITLE2=These Foolish Things
TTITLE3=It's the Talk of the Town
TTITLE4=In Love in Vain
TTITLE5=Too Late Now
TTITLE6=Autumn Leaves
TTITLE7=That Old Feeling
TTITLE8=I Lay Me Down to Sleep
TTITLE9=When You Wish Upon a Star
TTITLE10=You Never Fall in Love Again
TTITLE11=Where is that Someone for Me
TTITLE12=Anyone but Her [Rare Bonus Track]
TTITLE13=He Cried on My Shoulder [Rare and Unreleased Bonus Track]
TTITLE14=Only Trust Your Heart [Rare Bonus Track]
EXTD=
EXTT0=
EXTT1=
EXTT2=
EXTT3=
EXTT4=
EXTT5=
EXTT6=
EXTT7=
EXTT8=
EXTT9=
EXTT10=
EXTT11=
EXTT12=
EXTT13=
EXTT14=
PLAYORDER=
